<svg width="376" height="87" viewBox="0 0 376 87" fill="none" xmlns="http://www.w3.org/2000/svg">
<g clip-path="url(#clip0_7_1815)">
<g clip-path="url(#clip1_7_1815)">
<g clip-path="url(#clip2_7_1815)">
<path d="M5.52399 3.872V29H0.483994V3.872H5.52399ZM21.5555 8.768C23.9315 8.768 25.8515 9.524 27.3155 11.036C28.7795 12.524 29.5115 14.612 29.5115 17.3V29H24.4715V17.984C24.4715 16.4 24.0755 15.188 23.2835 14.348C22.4915 13.484 21.4115 13.052 20.0435 13.052C18.6515 13.052 17.5475 13.484 16.7315 14.348C15.9395 15.188 15.5435 16.4 15.5435 17.984V29H10.5035V9.056H15.5435V11.54C16.2155 10.676 17.0675 10.004 18.0995 9.524C19.1555 9.02 20.3075 8.768 21.5555 8.768ZM33.0083 18.956C33.0083 16.94 33.4043 15.152 34.1963 13.592C35.0123 12.032 36.1163 10.832 37.5083 9.992C38.9003 9.152 40.4483 8.732 42.1523 8.732C43.4483 8.732 44.6843 9.02 45.8603 9.596C47.0363 10.148 47.9723 10.892 48.6683 11.828V2.36H53.7803V29H48.6683V26.048C48.0443 27.032 47.1683 27.824 46.0403 28.424C44.9123 29.024 43.6043 29.324 42.1163 29.324C40.4363 29.324 38.9003 28.892 37.5083 28.028C36.1163 27.164 35.0123 25.952 34.1963 24.392C33.4043 22.808 33.0083 20.996 33.0083 18.956ZM48.7043 19.028C48.7043 17.804 48.4643 16.76 47.9843 15.896C47.5043 15.008 46.8563 14.336 46.0403 13.88C45.2243 13.4 44.3483 13.16 43.4123 13.16C42.4763 13.16 41.6123 13.388 40.8203 13.844C40.0283 14.3 39.3803 14.972 38.8763 15.86C38.3963 16.724 38.1563 17.756 38.1563 18.956C38.1563 20.156 38.3963 21.212 38.8763 22.124C39.3803 23.012 40.0283 23.696 40.8203 24.176C41.6363 24.656 42.5003 24.896 43.4123 24.896C44.3483 24.896 45.2243 24.668 46.0403 24.212C46.8563 23.732 47.5043 23.06 47.9843 22.196C48.4643 21.308 48.7043 20.252 48.7043 19.028ZM61.2588 6.68C60.3708 6.68 59.6268 6.404 59.0268 5.852C58.4508 5.276 58.1628 4.568 58.1628 3.728C58.1628 2.888 58.4508 2.192 59.0268 1.64C59.6268 1.064 60.3708 0.775999 61.2588 0.775999C62.1468 0.775999 62.8788 1.064 63.4548 1.64C64.0548 2.192 64.3548 2.888 64.3548 3.728C64.3548 4.568 64.0548 5.276 63.4548 5.852C62.8788 6.404 62.1468 6.68 61.2588 6.68ZM63.7428 9.056V29H58.7028V9.056H63.7428ZM67.4263 18.956C67.4263 16.94 67.8223 15.152 68.6143 13.592C69.4303 12.032 70.5223 10.832 71.8903 9.992C73.2823 9.152 74.8303 8.732 76.5343 8.732C78.0223 8.732 79.3183 9.032 80.4223 9.632C81.5503 10.232 82.4503 10.988 83.1223 11.9V9.056H88.1983V29H83.1223V26.084C82.4743 27.02 81.5743 27.8 80.4223 28.424C79.2943 29.024 77.9863 29.324 76.4983 29.324C74.8183 29.324 73.2823 28.892 71.8903 28.028C70.5223 27.164 69.4303 25.952 68.6143 24.392C67.8223 22.808 67.4263 20.996 67.4263 18.956ZM83.1223 19.028C83.1223 17.804 82.8823 16.76 82.4023 15.896C81.9223 15.008 81.2743 14.336 80.4583 13.88C79.6423 13.4 78.7663 13.16 77.8303 13.16C76.8943 13.16 76.0303 13.388 75.2383 13.844C74.4463 14.3 73.7983 14.972 73.2943 15.86C72.8143 16.724 72.5743 17.756 72.5743 18.956C72.5743 20.156 72.8143 21.212 73.2943 22.124C73.7983 23.012 74.4463 23.696 75.2383 24.176C76.0543 24.656 76.9183 24.896 77.8303 24.896C78.7663 24.896 79.6423 24.668 80.4583 24.212C81.2743 23.732 81.9223 23.06 82.4023 22.196C82.8823 21.308 83.1223 20.252 83.1223 19.028ZM94.1287 3.872H99.4207L95.5327 12.944H92.0767L94.1287 3.872ZM110.667 29.324C109.035 29.324 107.571 29.036 106.275 28.46C104.979 27.86 103.947 27.056 103.179 26.048C102.435 25.04 102.027 23.924 101.955 22.7H107.031C107.127 23.468 107.499 24.104 108.147 24.608C108.819 25.112 109.647 25.364 110.631 25.364C111.591 25.364 112.335 25.172 112.863 24.788C113.415 24.404 113.691 23.912 113.691 23.312C113.691 22.664 113.355 22.184 112.683 21.872C112.035 21.536 110.991 21.176 109.551 20.792C108.063 20.432 106.839 20.06 105.879 19.676C104.943 19.292 104.127 18.704 103.431 17.912C102.759 17.12 102.423 16.052 102.423 14.708C102.423 13.604 102.735 12.596 103.359 11.684C104.007 10.772 104.919 10.052 106.095 9.524C107.295 8.996 108.699 8.732 110.307 8.732C112.683 8.732 114.579 9.332 115.995 10.532C117.411 11.708 118.191 13.304 118.335 15.32H113.511C113.439 14.528 113.103 13.904 112.503 13.448C111.927 12.968 111.147 12.728 110.163 12.728C109.251 12.728 108.543 12.896 108.039 13.232C107.559 13.568 107.319 14.036 107.319 14.636C107.319 15.308 107.655 15.824 108.327 16.184C108.999 16.52 110.043 16.868 111.459 17.228C112.899 17.588 114.087 17.96 115.023 18.344C115.959 18.728 116.763 19.328 117.435 20.144C118.131 20.936 118.491 21.992 118.515 23.312C118.515 24.464 118.191 25.496 117.543 26.408C116.919 27.32 116.007 28.04 114.807 28.568C113.631 29.072 112.251 29.324 110.667 29.324ZM21.976 77H16.936L5.52399 59.756V77H0.483994V51.836H5.52399L16.936 69.116V51.836H21.976V77ZM35.8127 77.324C33.8927 77.324 32.1647 76.904 30.6287 76.064C29.0927 75.2 27.8807 73.988 26.9927 72.428C26.1287 70.868 25.6967 69.068 25.6967 67.028C25.6967 64.988 26.1407 63.188 27.0287 61.628C27.9407 60.068 29.1767 58.868 30.7367 58.028C32.2967 57.164 34.0367 56.732 35.9567 56.732C37.8767 56.732 39.6167 57.164 41.1767 58.028C42.7367 58.868 43.9607 60.068 44.8487 61.628C45.7607 63.188 46.2167 64.988 46.2167 67.028C46.2167 69.068 45.7487 70.868 44.8127 72.428C43.9007 73.988 42.6527 75.2 41.0687 76.064C39.5087 76.904 37.7567 77.324 35.8127 77.324ZM35.8127 72.932C36.7247 72.932 37.5767 72.716 38.3687 72.284C39.1847 71.828 39.8327 71.156 40.3127 70.268C40.7927 69.38 41.0327 68.3 41.0327 67.028C41.0327 65.132 40.5287 63.68 39.5207 62.672C38.5367 61.64 37.3247 61.124 35.8847 61.124C34.4447 61.124 33.2327 61.64 32.2487 62.672C31.2887 63.68 30.8087 65.132 30.8087 67.028C30.8087 68.924 31.2767 70.388 32.2127 71.42C33.1727 72.428 34.3727 72.932 35.8127 72.932ZM77.5617 57.056L71.7297 77H66.2937L62.6577 63.068L59.0217 77H53.5497L47.6817 57.056H52.7937L56.3217 72.248L60.1377 57.056H65.4657L69.2097 72.212L72.7377 57.056H77.5617ZM91.4228 54.68C90.5348 54.68 89.7908 54.404 89.1908 53.852C88.6148 53.276 88.3268 52.568 88.3268 51.728C88.3268 50.888 88.6148 50.192 89.1908 49.64C89.7908 49.064 90.5348 48.776 91.4228 48.776C92.3108 48.776 93.0428 49.064 93.6188 49.64C94.2188 50.192 94.5188 50.888 94.5188 51.728C94.5188 52.568 94.2188 53.276 93.6188 53.852C93.0428 54.404 92.3108 54.68 91.4228 54.68ZM93.9068 57.056V77H88.8668V57.056H93.9068ZM109.938 56.768C112.314 56.768 114.234 57.524 115.698 59.036C117.162 60.524 117.894 62.612 117.894 65.3V77H112.854V65.984C112.854 64.4 112.458 63.188 111.666 62.348C110.874 61.484 109.794 61.052 108.426 61.052C107.034 61.052 105.93 61.484 105.114 62.348C104.322 63.188 103.926 64.4 103.926 65.984V77H98.8863V57.056H103.926V59.54C104.598 58.676 105.45 58.004 106.482 57.524C107.538 57.02 108.69 56.768 109.938 56.768ZM151.245 51.872L142.749 68.252V77H137.709V68.252L129.177 51.872H134.865L140.265 63.356L145.629 51.872H151.245ZM163.008 77.324C161.088 77.324 159.36 76.904 157.824 76.064C156.288 75.2 155.076 73.988 154.188 72.428C153.324 70.868 152.892 69.068 152.892 67.028C152.892 64.988 153.336 63.188 154.224 61.628C155.136 60.068 156.372 58.868 157.932 58.028C159.492 57.164 161.232 56.732 163.152 56.732C165.072 56.732 166.812 57.164 168.372 58.028C169.932 58.868 171.156 60.068 172.044 61.628C172.956 63.188 173.412 64.988 173.412 67.028C173.412 69.068 172.944 70.868 172.008 72.428C171.096 73.988 169.848 75.2 168.264 76.064C166.704 76.904 164.952 77.324 163.008 77.324ZM163.008 72.932C163.92 72.932 164.772 72.716 165.564 72.284C166.38 71.828 167.028 71.156 167.508 70.268C167.988 69.38 168.228 68.3 168.228 67.028C168.228 65.132 167.724 63.68 166.716 62.672C165.732 61.64 164.52 61.124 163.08 61.124C161.64 61.124 160.428 61.64 159.444 62.672C158.484 63.68 158.004 65.132 158.004 67.028C158.004 68.924 158.472 70.388 159.408 71.42C160.368 72.428 161.568 72.932 163.008 72.932ZM195.937 57.056V77H190.861V74.48C190.213 75.344 189.361 76.028 188.305 76.532C187.273 77.012 186.145 77.252 184.921 77.252C183.361 77.252 181.981 76.928 180.781 76.28C179.581 75.608 178.633 74.636 177.937 73.364C177.265 72.068 176.929 70.532 176.929 68.756V57.056H181.969V68.036C181.969 69.62 182.365 70.844 183.157 71.708C183.949 72.548 185.029 72.968 186.397 72.968C187.789 72.968 188.881 72.548 189.673 71.708C190.465 70.844 190.861 69.62 190.861 68.036V57.056H195.937ZM205.95 60.152C206.598 59.096 207.438 58.268 208.47 57.668C209.526 57.068 210.726 56.768 212.07 56.768V62.06H210.738C209.154 62.06 207.954 62.432 207.138 63.176C206.346 63.92 205.95 65.216 205.95 67.064V77H200.91V57.056H205.95V60.152ZM222.819 64.4C222.819 61.928 223.371 59.72 224.475 57.776C225.603 55.808 227.127 54.284 229.047 53.204C230.991 52.1 233.163 51.548 235.563 51.548C238.371 51.548 240.831 52.268 242.943 53.708C245.055 55.148 246.531 57.14 247.371 59.684H241.575C240.999 58.484 240.183 57.584 239.127 56.984C238.095 56.384 236.895 56.084 235.527 56.084C234.063 56.084 232.755 56.432 231.603 57.128C230.475 57.8 229.587 58.76 228.939 60.008C228.315 61.256 228.003 62.72 228.003 64.4C228.003 66.056 228.315 67.52 228.939 68.792C229.587 70.04 230.475 71.012 231.603 71.708C232.755 72.38 234.063 72.716 235.527 72.716C236.895 72.716 238.095 72.416 239.127 71.816C240.183 71.192 240.999 70.28 241.575 69.08H247.371C246.531 71.648 245.055 73.652 242.943 75.092C240.855 76.508 238.395 77.216 235.563 77.216C233.163 77.216 230.991 76.676 229.047 75.596C227.127 74.492 225.603 72.968 224.475 71.024C223.371 69.08 222.819 66.872 222.819 64.4ZM254.231 54.68C253.343 54.68 252.599 54.404 251.999 53.852C251.423 53.276 251.135 52.568 251.135 51.728C251.135 50.888 251.423 50.192 251.999 49.64C252.599 49.064 253.343 48.776 254.231 48.776C255.119 48.776 255.851 49.064 256.427 49.64C257.027 50.192 257.327 50.888 257.327 51.728C257.327 52.568 257.027 53.276 256.427 53.852C255.851 54.404 255.119 54.68 254.231 54.68ZM256.715 57.056V77H251.675V57.056H256.715ZM267.563 61.196V70.844C267.563 71.516 267.719 72.008 268.031 72.32C268.367 72.608 268.919 72.752 269.687 72.752H272.027V77H268.859C264.611 77 262.487 74.936 262.487 70.808V61.196H260.111V57.056H262.487V52.124H267.563V57.056H272.027V61.196H267.563ZM294.732 57.056L282.384 86.432H277.02L281.34 76.496L273.348 57.056H279L284.148 70.988L289.368 57.056H294.732Z" fill="white"/>
<path d="M149.158 3.728V8.66H142.462V29H136.306V8.66H129.61V3.728H149.158ZM161.392 29.288C159.424 29.288 157.648 28.868 156.064 28.028C154.504 27.188 153.268 25.988 152.356 24.428C151.468 22.868 151.024 21.044 151.024 18.956C151.024 16.892 151.48 15.08 152.392 13.52C153.304 11.936 154.552 10.724 156.136 9.884C157.72 9.044 159.496 8.624 161.464 8.624C163.432 8.624 165.208 9.044 166.792 9.884C168.376 10.724 169.624 11.936 170.536 13.52C171.448 15.08 171.904 16.892 171.904 18.956C171.904 21.02 171.436 22.844 170.5 24.428C169.588 25.988 168.328 27.188 166.72 28.028C165.136 28.868 163.36 29.288 161.392 29.288ZM161.392 23.96C162.568 23.96 163.564 23.528 164.38 22.664C165.22 21.8 165.64 20.564 165.64 18.956C165.64 17.348 165.232 16.112 164.416 15.248C163.624 14.384 162.64 13.952 161.464 13.952C160.264 13.952 159.268 14.384 158.476 15.248C157.684 16.088 157.288 17.324 157.288 18.956C157.288 20.564 157.672 21.8 158.44 22.664C159.232 23.528 160.216 23.96 161.392 23.96ZM181.326 11.756C181.926 10.82 182.754 10.064 183.81 9.488C184.866 8.912 186.102 8.624 187.518 8.624C189.174 8.624 190.674 9.044 192.018 9.884C193.362 10.724 194.418 11.924 195.186 13.484C195.978 15.044 196.374 16.856 196.374 18.92C196.374 20.984 195.978 22.808 195.186 24.392C194.418 25.952 193.362 27.164 192.018 28.028C190.674 28.868 189.174 29.288 187.518 29.288C186.126 29.288 184.89 29 183.81 28.424C182.754 27.848 181.926 27.104 181.326 26.192V38.576H175.17V8.912H181.326V11.756ZM190.11 18.92C190.11 17.384 189.678 16.184 188.814 15.32C187.974 14.432 186.93 13.988 185.682 13.988C184.458 13.988 183.414 14.432 182.55 15.32C181.71 16.208 181.29 17.42 181.29 18.956C181.29 20.492 181.71 21.704 182.55 22.592C183.414 23.48 184.458 23.924 185.682 23.924C186.906 23.924 187.95 23.48 188.814 22.592C189.678 21.68 190.11 20.456 190.11 18.92ZM225.412 3.728V8.66H218.716V29H212.56V8.66H205.864V3.728H225.412ZM247.438 18.632C247.438 19.208 247.402 19.808 247.33 20.432H233.398C233.494 21.68 233.89 22.64 234.586 23.312C235.306 23.96 236.182 24.284 237.214 24.284C238.75 24.284 239.818 23.636 240.418 22.34H246.97C246.634 23.66 246.022 24.848 245.134 25.904C244.27 26.96 243.178 27.788 241.858 28.388C240.538 28.988 239.062 29.288 237.43 29.288C235.462 29.288 233.71 28.868 232.174 28.028C230.638 27.188 229.438 25.988 228.574 24.428C227.71 22.868 227.278 21.044 227.278 18.956C227.278 16.868 227.698 15.044 228.538 13.484C229.402 11.924 230.602 10.724 232.138 9.884C233.674 9.044 235.438 8.624 237.43 8.624C239.374 8.624 241.102 9.032 242.614 9.848C244.126 10.664 245.302 11.828 246.142 13.34C247.006 14.852 247.438 16.616 247.438 18.632ZM241.138 17.012C241.138 15.956 240.778 15.116 240.058 14.492C239.338 13.868 238.438 13.556 237.358 13.556C236.326 13.556 235.45 13.856 234.73 14.456C234.034 15.056 233.602 15.908 233.434 17.012H241.138ZM249.461 18.92C249.461 16.856 249.845 15.044 250.613 13.484C251.405 11.924 252.473 10.724 253.817 9.884C255.161 9.044 256.661 8.624 258.317 8.624C259.733 8.624 260.969 8.912 262.025 9.488C263.105 10.064 263.933 10.82 264.509 11.756V8.912H270.665V29H264.509V26.156C263.909 27.092 263.069 27.848 261.989 28.424C260.933 29 259.697 29.288 258.281 29.288C256.649 29.288 255.161 28.868 253.817 28.028C252.473 27.164 251.405 25.952 250.613 24.392C249.845 22.808 249.461 20.984 249.461 18.92ZM264.509 18.956C264.509 17.42 264.077 16.208 263.213 15.32C262.373 14.432 261.341 13.988 260.117 13.988C258.893 13.988 257.849 14.432 256.985 15.32C256.145 16.184 255.725 17.384 255.725 18.92C255.725 20.456 256.145 21.68 256.985 22.592C257.849 23.48 258.893 23.924 260.117 23.924C261.341 23.924 262.373 23.48 263.213 22.592C264.077 21.704 264.509 20.492 264.509 18.956ZM273.895 18.956C273.895 16.868 274.315 15.044 275.155 13.484C276.019 11.924 277.207 10.724 278.719 9.884C280.255 9.044 282.007 8.624 283.975 8.624C286.495 8.624 288.595 9.284 290.275 10.604C291.979 11.924 293.095 13.784 293.623 16.184H287.071C286.519 14.648 285.451 13.88 283.867 13.88C282.739 13.88 281.839 14.324 281.167 15.212C280.495 16.076 280.159 17.324 280.159 18.956C280.159 20.588 280.495 21.848 281.167 22.736C281.839 23.6 282.739 24.032 283.867 24.032C285.451 24.032 286.519 23.264 287.071 21.728H293.623C293.095 24.08 291.979 25.928 290.275 27.272C288.571 28.616 286.471 29.288 283.975 29.288C282.007 29.288 280.255 28.868 278.719 28.028C277.207 27.188 276.019 25.988 275.155 24.428C274.315 22.868 273.895 21.044 273.895 18.956ZM309.264 8.696C311.568 8.696 313.416 9.464 314.808 11C316.2 12.512 316.896 14.6 316.896 17.264V29H310.776V18.092C310.776 16.748 310.428 15.704 309.732 14.96C309.036 14.216 308.1 13.844 306.924 13.844C305.748 13.844 304.812 14.216 304.116 14.96C303.42 15.704 303.072 16.748 303.072 18.092V29H296.916V2.36H303.072V11.612C303.696 10.724 304.548 10.016 305.628 9.488C306.708 8.96 307.92 8.696 309.264 8.696ZM340.109 18.632C340.109 19.208 340.073 19.808 340.001 20.432H326.069C326.165 21.68 326.561 22.64 327.257 23.312C327.977 23.96 328.853 24.284 329.885 24.284C331.421 24.284 332.489 23.636 333.089 22.34H339.641C339.305 23.66 338.693 24.848 337.805 25.904C336.941 26.96 335.849 27.788 334.529 28.388C333.209 28.988 331.733 29.288 330.101 29.288C328.133 29.288 326.381 28.868 324.845 28.028C323.309 27.188 322.109 25.988 321.245 24.428C320.381 22.868 319.949 21.044 319.949 18.956C319.949 16.868 320.369 15.044 321.209 13.484C322.073 11.924 323.273 10.724 324.809 9.884C326.345 9.044 328.109 8.624 330.101 8.624C332.045 8.624 333.773 9.032 335.285 9.848C336.797 10.664 337.973 11.828 338.813 13.34C339.677 14.852 340.109 16.616 340.109 18.632ZM333.809 17.012C333.809 15.956 333.449 15.116 332.729 14.492C332.009 13.868 331.109 13.556 330.029 13.556C328.997 13.556 328.121 13.856 327.401 14.456C326.705 15.056 326.273 15.908 326.105 17.012H333.809ZM349.513 12.26C350.233 11.156 351.133 10.292 352.213 9.668C353.293 9.02 354.493 8.696 355.813 8.696V15.212H354.121C352.585 15.212 351.433 15.548 350.665 16.22C349.897 16.868 349.513 18.02 349.513 19.676V29H343.357V8.912H349.513V12.26ZM366.927 29.288C365.175 29.288 363.615 28.988 362.247 28.388C360.879 27.788 359.799 26.972 359.007 25.94C358.215 24.884 357.771 23.708 357.675 22.412H363.759C363.831 23.108 364.155 23.672 364.731 24.104C365.307 24.536 366.015 24.752 366.855 24.752C367.623 24.752 368.211 24.608 368.619 24.32C369.051 24.008 369.267 23.612 369.267 23.132C369.267 22.556 368.967 22.136 368.367 21.872C367.767 21.584 366.795 21.272 365.451 20.936C364.011 20.6 362.811 20.252 361.851 19.892C360.891 19.508 360.063 18.92 359.367 18.128C358.671 17.312 358.323 16.22 358.323 14.852C358.323 13.7 358.635 12.656 359.259 11.72C359.907 10.76 360.843 10.004 362.067 9.452C363.315 8.9 364.791 8.624 366.495 8.624C369.015 8.624 370.995 9.248 372.435 10.496C373.899 11.744 374.739 13.4 374.955 15.464H369.267C369.171 14.768 368.859 14.216 368.331 13.808C367.827 13.4 367.155 13.196 366.315 13.196C365.595 13.196 365.043 13.34 364.659 13.628C364.275 13.892 364.083 14.264 364.083 14.744C364.083 15.32 364.383 15.752 364.983 16.04C365.607 16.328 366.567 16.616 367.863 16.904C369.351 17.288 370.563 17.672 371.499 18.056C372.435 18.416 373.251 19.016 373.947 19.856C374.667 20.672 375.039 21.776 375.063 23.168C375.063 24.344 374.727 25.4 374.055 26.336C373.407 27.248 372.459 27.968 371.211 28.496C369.987 29.024 368.559 29.288 366.927 29.288Z" fill="#FFDA49"/>
</g>
</g>
</g>
<defs>
<clipPath id="clip0_7_1815">
<rect width="376" height="87" fill="white"/>
</clipPath>
<clipPath id="clip1_7_1815">
<rect width="376" height="87" fill="white"/>
</clipPath>
<clipPath id="clip2_7_1815">
<rect width="376" height="87" fill="white"/>
</clipPath>
</defs>
</svg>
