<svg width="25" height="38" viewBox="0 0 25 38" fill="none" xmlns="http://www.w3.org/2000/svg">
<g clip-path="url(#clip0_7_2034)">
<g clip-path="url(#clip1_7_2034)">
<path d="M8.75 21.8101C11.4424 21.8101 13.625 19.6275 13.625 16.9351C13.625 14.2427 11.4424 12.0601 8.75 12.0601C6.05761 12.0601 3.875 14.2427 3.875 16.9351C3.875 19.6275 6.05761 21.8101 8.75 21.8101Z" stroke="#FF693D" stroke-width="1.5" stroke-miterlimit="10"/>
<path d="M15.0703 12.2418C15.7408 12.0529 16.444 12.0098 17.1326 12.1156C17.8212 12.2213 18.479 12.4734 19.062 12.8548C19.6449 13.2362 20.1393 13.7381 20.512 14.3267C20.8846 14.9153 21.1267 15.5769 21.2221 16.267C21.3175 16.9571 21.264 17.6595 21.065 18.3272C20.866 18.9948 20.5263 19.612 20.0687 20.1372C19.6111 20.6625 19.0463 21.0836 18.4123 21.3722C17.7782 21.6608 17.0897 21.8101 16.3931 21.8102" stroke="#FF693D" stroke-width="1.5" stroke-linecap="round" stroke-linejoin="round"/>
<path d="M2 25.316C2.76138 24.233 3.77215 23.3491 4.94698 22.7389C6.12182 22.1287 7.42622 21.8102 8.75008 21.8101C10.0739 21.81 11.3784 22.1285 12.5532 22.7386C13.7281 23.3487 14.739 24.2326 15.5004 25.3155" stroke="#FF693D" stroke-width="1.5" stroke-linecap="round" stroke-linejoin="round"/>
<path d="M16.3926 21.8101C17.7166 21.8091 19.0213 22.1272 20.1962 22.7374C21.3712 23.3476 22.3819 24.2319 23.1426 25.3155" stroke="#FF693D" stroke-width="1.5" stroke-linecap="round" stroke-linejoin="round"/>
</g>
</g>
<defs>
<clipPath id="clip0_7_2034">
<rect width="24" height="37" fill="white" transform="translate(0.5 0.310059)"/>
</clipPath>
<clipPath id="clip1_7_2034">
<rect width="24" height="37" fill="white" transform="translate(0.5 0.310059)"/>
</clipPath>
</defs>
</svg>
