<svg width="25" height="38" viewBox="0 0 25 38" fill="none" xmlns="http://www.w3.org/2000/svg">
<g clip-path="url(#clip0_7_2057)">
<g clip-path="url(#clip1_7_2057)">
<path d="M9.07996 21.0601H15.08" stroke="#FF693D" stroke-width="1.50207" stroke-linecap="round" stroke-linejoin="round"/>
<path d="M9.07996 18.0601H15.08" stroke="#FF693D" stroke-width="1.50207" stroke-linecap="round" stroke-linejoin="round"/>
<path d="M8.32996 13.5601V12.8101C8.32996 11.8155 8.72505 10.8617 9.42831 10.1584C10.1316 9.45515 11.0854 9.06006 12.08 9.06006C13.0746 9.06006 14.0284 9.45515 14.7317 10.1584C15.4349 10.8617 15.83 11.8155 15.83 12.8101V13.5601H8.32996Z" stroke="#FF693D" stroke-width="1.50207" stroke-linecap="round" stroke-linejoin="round"/>
<path d="M9.07996 10.5601H6.08307C4.83871 10.5601 3.82996 11.5688 3.82996 12.8132V26.307C3.82996 27.5513 4.83871 28.5601 6.08307 28.5601H18.0769C19.3212 28.5601 20.33 27.5513 20.33 26.307V12.8132C20.33 11.5688 19.3212 10.5601 18.0769 10.5601H15.455" stroke="#FF693D" stroke-width="1.50207" stroke-linecap="round" stroke-linejoin="round"/>
</g>
</g>
<defs>
<clipPath id="clip0_7_2057">
<rect width="24" height="37" fill="white" transform="translate(0.0799561 0.310059)"/>
</clipPath>
<clipPath id="clip1_7_2057">
<rect width="24" height="37" fill="white" transform="translate(0.0799561 0.310059)"/>
</clipPath>
</defs>
</svg>
