<svg width="25" height="38" viewBox="0 0 25 38" fill="none" xmlns="http://www.w3.org/2000/svg">
<g clip-path="url(#clip0_7_2051)">
<g clip-path="url(#clip1_7_2051)">
<path d="M3.93971 14.3101C4.25045 14.3101 5.3526 14.3101 5.75042 14.3101H18.5004H19.2504C20.4931 14.3101 21.5004 15.3174 21.5004 16.56V24.8101C21.5004 26.0527 20.4931 27.0601 19.2504 27.0601H5.43976C4.61134 27.0601 3.93976 26.3885 3.93976 25.5601L3.93971 14.3101ZM3.93971 14.3101C3.93974 13.5601 3.87546 11.3101 5.75042 11.3101H18.5004" stroke="#FF693D" stroke-width="1.5" stroke-linecap="round" stroke-linejoin="round"/>
<path d="M17.375 21.4351C17.9963 21.4351 18.5 20.9314 18.5 20.3101C18.5 19.6888 17.9963 19.1851 17.375 19.1851C16.7537 19.1851 16.25 19.6888 16.25 20.3101C16.25 20.9314 16.7537 21.4351 17.375 21.4351Z" fill="#FF693D"/>
</g>
</g>
<defs>
<clipPath id="clip0_7_2051">
<rect width="24" height="37" fill="white" transform="translate(0.5 0.310059)"/>
</clipPath>
<clipPath id="clip1_7_2051">
<rect width="24" height="37" fill="white" transform="translate(0.5 0.310059)"/>
</clipPath>
</defs>
</svg>
