<svg width="25" height="38" viewBox="0 0 25 38" fill="none" xmlns="http://www.w3.org/2000/svg">
<g clip-path="url(#clip0_7_2042)">
<g clip-path="url(#clip1_7_2042)">
<path d="M20.33 24.8101V12.8101C20.33 11.5674 19.3226 10.5601 18.08 10.5601H6.07996C4.83732 10.5601 3.82996 11.5674 3.82996 12.8101V24.8101C3.82996 26.0527 4.83732 27.0601 6.07996 27.0601H18.08C19.3226 27.0601 20.33 26.0527 20.33 24.8101Z" stroke="#FF693D" stroke-width="1.5" stroke-linecap="round" stroke-linejoin="round"/>
<path d="M16.58 9.06006V12.0601" stroke="#FF693D" stroke-width="1.5" stroke-linecap="round" stroke-linejoin="round"/>
<path d="M7.57996 9.06006V12.0601" stroke="#FF693D" stroke-width="1.5" stroke-linecap="round" stroke-linejoin="round"/>
<path d="M3.82996 15.0601H20.33" stroke="#FF693D" stroke-width="1.5" stroke-linecap="round" stroke-linejoin="round"/>
<path d="M15.455 18.8096L11.5957 22.4483C11.3063 22.7212 10.8542 22.7207 10.5654 22.4471L8.70496 20.6846" stroke="#FF693D" stroke-width="1.5" stroke-linecap="round" stroke-linejoin="round"/>
</g>
</g>
<defs>
<clipPath id="clip0_7_2042">
<rect width="24" height="37" fill="white" transform="translate(0.0799561 0.310059)"/>
</clipPath>
<clipPath id="clip1_7_2042">
<rect width="24" height="37" fill="white" transform="translate(0.0799561 0.310059)"/>
</clipPath>
</defs>
</svg>
