<svg width="57" height="56" viewBox="0 0 57 56" fill="none" xmlns="http://www.w3.org/2000/svg">
<g clip-path="url(#clip0_7_1839)">
<g clip-path="url(#clip1_7_1839)">
<g clip-path="url(#clip2_7_1839)">
<path d="M48.02 0H8.02C3.60173 0 0.0200043 3.58172 0.0200043 8V48C0.0200043 52.4183 3.60173 56 8.02 56H48.02C52.4383 56 56.02 52.4183 56.02 48V8C56.02 3.58172 52.4383 0 48.02 0Z" fill="#FFF0E9"/>
<path d="M27.63 15.042C16.7485 15.042 7.92723 25.7489 7.92723 38.9564H47.3329C47.3329 25.7489 38.5116 15.042 27.63 15.042Z" stroke="#F35427" stroke-width="1.5"/>
<path d="M49.6304 38.9568H5.63036V42.1964H49.6304V38.9568Z" stroke="#F35427" stroke-width="1.5"/>
<path d="M16.6746 16.751L17.7643 18.4592C19.1072 22.0404 23.8214 25.1348 26.0106 26.2343C36.9428 31.6062 41.4822 36.9546 42.3854 38.9572C39.7348 34.6279 22.9182 26.7055 19.119 24.8795C16.0796 23.4187 14.2007 20.344 13.6411 18.9893L16.6746 16.751Z" stroke="#F35427" stroke-width="1.5"/>
<path d="M25.8042 11.8084V14.9891C31.4352 14.1174 36.279 16.7856 37.997 18.2288C34.8162 12.8568 28.5431 11.7102 25.8042 11.8084Z" stroke="#F35427" stroke-width="1.5"/>
<path d="M25.5981 36.041C25.5981 34.4958 26.8508 33.2432 28.396 33.2432C29.9412 33.2432 31.1938 34.4958 31.1938 36.041V38.9567H25.5981V36.041Z" stroke="#F35427" stroke-width="1.5"/>
</g>
</g>
</g>
<defs>
<clipPath id="clip0_7_1839">
<rect width="56" height="56" fill="white" transform="translate(0.0200043)"/>
</clipPath>
<clipPath id="clip1_7_1839">
<rect width="56" height="56" fill="white" transform="translate(0.0200043)"/>
</clipPath>
<clipPath id="clip2_7_1839">
<rect width="56" height="56" fill="white" transform="translate(0.0200043)"/>
</clipPath>
</defs>
</svg>
